<svg width="60" height="60" viewBox="0 0 60 60" fill="none" xmlns="http://www.w3.org/2000/svg">
<path d="M47.275 38.1575V20.2425C47.2625 16.2275 44.5825 10.25 37.25 10.25V5.25L27.25 12.75L37.25 20.25V15.25C41.8225 15.25 42.2525 19.0975 42.275 20.25V38.1575C38.675 39.2425 36.025 42.55 36.025 46.5C36.025 51.325 39.95 55.25 44.775 55.25C49.6 55.25 53.525 51.325 53.525 46.5C53.525 42.55 50.875 39.2425 47.275 38.1575V38.1575ZM44.775 50.25C42.7075 50.25 41.025 48.5675 41.025 46.5C41.025 44.4325 42.7075 42.75 44.775 42.75C46.8425 42.75 48.525 44.4325 48.525 46.5C48.525 48.5675 46.8425 50.25 44.775 50.25ZM23.5 14C23.5 9.175 19.575 5.25 14.75 5.25C9.925 5.25 6 9.175 6 14C6 17.95 8.65 21.2575 12.25 22.3425V38.1575C8.65 39.2425 6 42.55 6 46.5C6 51.325 9.925 55.25 14.75 55.25C19.575 55.25 23.5 51.325 23.5 46.5C23.5 42.55 20.85 39.2425 17.25 38.1575V22.3425C20.85 21.2575 23.5 17.95 23.5 14ZM11 14C11 11.9325 12.6825 10.25 14.75 10.25C16.8175 10.25 18.5 11.9325 18.5 14C18.5 16.0675 16.8175 17.75 14.75 17.75C12.6825 17.75 11 16.0675 11 14ZM18.5 46.5C18.5 48.5675 16.8175 50.25 14.75 50.25C12.6825 50.25 11 48.5675 11 46.5C11 44.4325 12.6825 42.75 14.75 42.75C16.8175 42.75 18.5 44.4325 18.5 46.5Z" fill="#31ae54"/>
</svg>
